{
	"asset":{
		"generator":"Khronos glTF Blender I/O v4.5.47",
		"version":"2.0"
	},
	"extensionsUsed":[
		"KHR_materials_specular",
		"KHR_materials_ior"
	],
	"scene":0,
	"scenes":[
		{
			"name":"Scene",
			"nodes":[
				0,
				1
			]
		}
	],
	"nodes":[
		{
			"mesh":0,
			"name":"\u684c\u5b50",
			"translation":[
				0,
				1.0491323471069336,
				-0.06122000142931938
			]
		},
		{
			"mesh":1,
			"name":"\u6905\u5b50",
			"translation":[
				0,
				0.718461275100708,
				0.7816371917724609
			]
		}
	],
	"materials":[
		{
			"doubleSided":true,
			"name":"\u6750\u8d28",
			"pbrMetallicRoughness":{
				"baseColorFactor":[
					0.061463940888643265,
					0.061463940888643265,
					0.061463940888643265,
					1
				],
				"metallicFactor":0,
				"roughnessFactor":0.5
			}
		},
		{
			"doubleSided":true,
			"name":"\u6750\u8d28.002",
			"pbrMetallicRoughness":{
				"baseColorFactor":[
					0.800000011920929,
					0.800000011920929,
					0.800000011920929,
					1
				],
				"metallicFactor":0,
				"roughnessFactor":0.5
			}
		},
		{
			"doubleSided":true,
			"name":"\u6750\u8d28.004",
			"pbrMetallicRoughness":{
				"baseColorFactor":[
					0.014904670417308807,
					0.22670379281044006,
					0.8008192181587219,
					1
				],
				"metallicFactor":0,
				"roughnessFactor":0.5
			}
		},
		{
			"doubleSided":true,
			"extensions":{
				"KHR_materials_specular":{
					"specularFactor":0.03999999910593033
				},
				"KHR_materials_ior":{
					"ior":1.4500000476837158
				}
			},
			"name":"2K_Metal11"
		}
	],
	"meshes":[
		{
			"name":"\u5e73\u9762",
			"primitives":[
				{
					"attributes":{
						"POSITION":0,
						"NORMAL":1,
						"TEXCOORD_0":2
					},
					"indices":3,
					"material":0
				},
				{
					"attributes":{
						"POSITION":4,
						"NORMAL":5,
						"TEXCOORD_0":6
					},
					"indices":7,
					"material":1
				}
			]
		},
		{
			"name":"\u5e73\u9762.001",
			"primitives":[
				{
					"attributes":{
						"POSITION":8,
						"NORMAL":9,
						"TEXCOORD_0":10
					},
					"indices":11,
					"material":2
				},
				{
					"attributes":{
						"POSITION":12,
						"NORMAL":13,
						"TEXCOORD_0":14
					},
					"indices":15,
					"material":3
				}
			]
		}
	],
	"accessors":[
		{
			"bufferView":0,
			"componentType":5126,
			"count":2571,
			"max":[
				0.6299999952316284,
				0.24017508327960968,
				0.3192804753780365
			],
			"min":[
				-0.6299999952316284,
				-0.7525284290313721,
				-0.4313108026981354
			],
			"type":"VEC3"
		},
		{
			"bufferView":1,
			"componentType":5126,
			"count":2571,
			"type":"VEC3"
		},
		{
			"bufferView":2,
			"componentType":5126,
			"count":2571,
			"type":"VEC2"
		},
		{
			"bufferView":3,
			"componentType":5123,
			"count":5424,
			"type":"SCALAR"
		},
		{
			"bufferView":4,
			"componentType":5126,
			"count":230,
			"max":[
				0.6299999952316284,
				0.24017508327960968,
				0.31305551528930664
			],
			"min":[
				-0.6299999952316284,
				0.17717507481575012,
				-0.31694450974464417
			],
			"type":"VEC3"
		},
		{
			"bufferView":5,
			"componentType":5126,
			"count":230,
			"type":"VEC3"
		},
		{
			"bufferView":6,
			"componentType":5126,
			"count":230,
			"type":"VEC2"
		},
		{
			"bufferView":7,
			"componentType":5123,
			"count":660,
			"type":"SCALAR"
		},
		{
			"bufferView":8,
			"componentType":5126,
			"count":600,
			"max":[
				0.3011837303638458,
				0.07689537853002548,
				0.13573235273361206
			],
			"min":[
				-0.3011837303638458,
				0.01476006768643856,
				-0.42888638377189636
			],
			"type":"VEC3"
		},
		{
			"bufferView":9,
			"componentType":5126,
			"count":600,
			"type":"VEC3"
		},
		{
			"bufferView":10,
			"componentType":5126,
			"count":600,
			"type":"VEC2"
		},
		{
			"bufferView":11,
			"componentType":5123,
			"count":900,
			"type":"SCALAR"
		},
		{
			"bufferView":12,
			"componentType":5126,
			"count":1086,
			"max":[
				0.3418335020542145,
				0.5809842348098755,
				0.23367474973201752
			],
			"min":[
				-0.34183332324028015,
				-0.42986607551574707,
				-0.4731851816177368
			],
			"type":"VEC3"
		},
		{
			"bufferView":13,
			"componentType":5126,
			"count":1086,
			"type":"VEC3"
		},
		{
			"bufferView":14,
			"componentType":5126,
			"count":1086,
			"type":"VEC2"
		},
		{
			"bufferView":15,
			"componentType":5123,
			"count":1872,
			"type":"SCALAR"
		}
	],
	"bufferViews":[
		{
			"buffer":0,
			"byteLength":30852,
			"byteOffset":0,
			"target":34962
		},
		{
			"buffer":0,
			"byteLength":30852,
			"byteOffset":30852,
			"target":34962
		},
		{
			"buffer":0,
			"byteLength":20568,
			"byteOffset":61704,
			"target":34962
		},
		{
			"buffer":0,
			"byteLength":10848,
			"byteOffset":82272,
			"target":34963
		},
		{
			"buffer":0,
			"byteLength":2760,
			"byteOffset":93120,
			"target":34962
		},
		{
			"buffer":0,
			"byteLength":2760,
			"byteOffset":95880,
			"target":34962
		},
		{
			"buffer":0,
			"byteLength":1840,
			"byteOffset":98640,
			"target":34962
		},
		{
			"buffer":0,
			"byteLength":1320,
			"byteOffset":100480,
			"target":34963
		},
		{
			"buffer":0,
			"byteLength":7200,
			"byteOffset":101800,
			"target":34962
		},
		{
			"buffer":0,
			"byteLength":7200,
			"byteOffset":109000,
			"target":34962
		},
		{
			"buffer":0,
			"byteLength":4800,
			"byteOffset":116200,
			"target":34962
		},
		{
			"buffer":0,
			"byteLength":1800,
			"byteOffset":121000,
			"target":34963
		},
		{
			"buffer":0,
			"byteLength":13032,
			"byteOffset":122800,
			"target":34962
		},
		{
			"buffer":0,
			"byteLength":13032,
			"byteOffset":135832,
			"target":34962
		},
		{
			"buffer":0,
			"byteLength":8688,
			"byteOffset":148864,
			"target":34962
		},
		{
			"buffer":0,
			"byteLength":3744,
			"byteOffset":157552,
			"target":34963
		}
	],
	"buffers":[
		{
			"byteLength":161296,
			"uri":"deskAndChair.bin"
		}
	]
}
