{
	"asset":{
		"generator":"Khronos glTF Blender I/O v4.5.47",
		"version":"2.0"
	},
	"scene":0,
	"scenes":[
		{
			"name":"Scene",
			"nodes":[
				0
			]
		}
	],
	"nodes":[
		{
			"mesh":0,
			"name":"\u684c\u6905"
		}
	],
	"meshes":[
		{
			"name":"\u7acb\u65b9\u4f53.006",
			"primitives":[
				{
					"attributes":{
						"POSITION":0,
						"NORMAL":1,
						"TEXCOORD_0":2
					},
					"indices":3
				}
			]
		}
	],
	"accessors":[
		{
			"bufferView":0,
			"componentType":5126,
			"count":989,
			"max":[
				-0.5636863112449646,
				0.9956682920455933,
				2.43999981880188
			],
			"min":[
				-1.9600000381469727,
				0.23817846179008484,
				1.3599998950958252
			],
			"type":"VEC3"
		},
		{
			"bufferView":1,
			"componentType":5126,
			"count":989,
			"type":"VEC3"
		},
		{
			"bufferView":2,
			"componentType":5126,
			"count":989,
			"type":"VEC2"
		},
		{
			"bufferView":3,
			"componentType":5123,
			"count":1620,
			"type":"SCALAR"
		}
	],
	"bufferViews":[
		{
			"buffer":0,
			"byteLength":11868,
			"byteOffset":0,
			"target":34962
		},
		{
			"buffer":0,
			"byteLength":11868,
			"byteOffset":11868,
			"target":34962
		},
		{
			"buffer":0,
			"byteLength":7912,
			"byteOffset":23736,
			"target":34962
		},
		{
			"buffer":0,
			"byteLength":3240,
			"byteOffset":31648,
			"target":34963
		}
	],
	"buffers":[
		{
			"byteLength":34888,
			"uri":"deskChairMini.bin"
		}
	]
}
