{
	"asset":{
		"generator":"Khronos glTF Blender I/O v4.5.47",
		"version":"2.0"
	},
	"extensionsUsed":[
		"KHR_materials_specular",
		"KHR_materials_ior"
	],
	"scene":0,
	"scenes":[
		{
			"name":"Scene",
			"nodes":[
				0,
				1
			]
		}
	],
	"nodes":[
		{
			"mesh":0,
			"name":"\u8bfe\u684c",
			"translation":[
				-1.600000023841858,
				0.977668285369873,
				1.8999998569488525
			]
		},
		{
			"mesh":1,
			"name":"\u6905\u5b50",
			"translation":[
				-0.800000011920929,
				0.6299998760223389,
				1.899999976158142
			]
		}
	],
	"materials":[
		{
			"doubleSided":true,
			"extensions":{
				"KHR_materials_specular":{
					"specularFactor":0.03999999910593033
				},
				"KHR_materials_ior":{
					"ior":1.4500000476837158
				}
			},
			"name":"2K_Wood05",
			"pbrMetallicRoughness":{
				"metallicFactor":0
			}
		},
		{
			"doubleSided":true,
			"extensions":{
				"KHR_materials_specular":{
					"specularFactor":0.03999999910593033
				},
				"KHR_materials_ior":{
					"ior":1.4500000476837158
				}
			},
			"name":"2K_Metal12"
		}
	],
	"meshes":[
		{
			"name":"\u7acb\u65b9\u4f53",
			"primitives":[
				{
					"attributes":{
						"POSITION":0,
						"NORMAL":1,
						"TEXCOORD_0":2
					},
					"indices":3,
					"material":0
				},
				{
					"attributes":{
						"POSITION":4,
						"NORMAL":5,
						"TEXCOORD_0":6
					},
					"indices":7,
					"material":1
				}
			]
		},
		{
			"name":"\u7acb\u65b9\u4f53.006",
			"primitives":[
				{
					"attributes":{
						"POSITION":8,
						"NORMAL":9,
						"TEXCOORD_0":10
					},
					"indices":11,
					"material":0
				},
				{
					"attributes":{
						"POSITION":12,
						"NORMAL":13,
						"TEXCOORD_0":14
					},
					"indices":15,
					"material":1
				}
			]
		}
	],
	"accessors":[
		{
			"bufferView":0,
			"componentType":5126,
			"count":62,
			"max":[
				0.35999998450279236,
				0.017999999225139618,
				0.5400000214576721
			],
			"min":[
				-0.35999998450279236,
				-0.1979999989271164,
				-0.5400000214576721
			],
			"type":"VEC3"
		},
		{
			"bufferView":1,
			"componentType":5126,
			"count":62,
			"type":"VEC3"
		},
		{
			"bufferView":2,
			"componentType":5126,
			"count":62,
			"type":"VEC2"
		},
		{
			"bufferView":3,
			"componentType":5123,
			"count":102,
			"type":"SCALAR"
		},
		{
			"bufferView":4,
			"componentType":5126,
			"count":636,
			"max":[
				0.35999998450279236,
				0.017999999225139618,
				0.5400000214576721
			],
			"min":[
				-0.35999998450279236,
				-0.7380000352859497,
				-0.5400000214576721
			],
			"type":"VEC3"
		},
		{
			"bufferView":5,
			"componentType":5126,
			"count":636,
			"type":"VEC3"
		},
		{
			"bufferView":6,
			"componentType":5126,
			"count":636,
			"type":"VEC2"
		},
		{
			"bufferView":7,
			"componentType":5123,
			"count":1002,
			"type":"SCALAR"
		},
		{
			"bufferView":8,
			"componentType":5126,
			"count":32,
			"max":[
				0.23631370067596436,
				0.022178569808602333,
				0.2813137173652649
			],
			"min":[
				-0.23631370067596436,
				-0.022178569808602333,
				-0.2813137173652649
			],
			"type":"VEC3"
		},
		{
			"bufferView":9,
			"componentType":5126,
			"count":32,
			"type":"VEC3"
		},
		{
			"bufferView":10,
			"componentType":5126,
			"count":32,
			"type":"VEC2"
		},
		{
			"bufferView":11,
			"componentType":5123,
			"count":78,
			"type":"SCALAR"
		},
		{
			"bufferView":12,
			"componentType":5126,
			"count":244,
			"max":[
				0.22499999403953552,
				-0.022178569808602333,
				0.27000001072883606
			],
			"min":[
				-0.22499999403953552,
				-0.39182141423225403,
				-0.27000001072883606
			],
			"type":"VEC3"
		},
		{
			"bufferView":13,
			"componentType":5126,
			"count":244,
			"type":"VEC3"
		},
		{
			"bufferView":14,
			"componentType":5126,
			"count":244,
			"type":"VEC2"
		},
		{
			"bufferView":15,
			"componentType":5123,
			"count":438,
			"type":"SCALAR"
		}
	],
	"bufferViews":[
		{
			"buffer":0,
			"byteLength":744,
			"byteOffset":0,
			"target":34962
		},
		{
			"buffer":0,
			"byteLength":744,
			"byteOffset":744,
			"target":34962
		},
		{
			"buffer":0,
			"byteLength":496,
			"byteOffset":1488,
			"target":34962
		},
		{
			"buffer":0,
			"byteLength":204,
			"byteOffset":1984,
			"target":34963
		},
		{
			"buffer":0,
			"byteLength":7632,
			"byteOffset":2188,
			"target":34962
		},
		{
			"buffer":0,
			"byteLength":7632,
			"byteOffset":9820,
			"target":34962
		},
		{
			"buffer":0,
			"byteLength":5088,
			"byteOffset":17452,
			"target":34962
		},
		{
			"buffer":0,
			"byteLength":2004,
			"byteOffset":22540,
			"target":34963
		},
		{
			"buffer":0,
			"byteLength":384,
			"byteOffset":24544,
			"target":34962
		},
		{
			"buffer":0,
			"byteLength":384,
			"byteOffset":24928,
			"target":34962
		},
		{
			"buffer":0,
			"byteLength":256,
			"byteOffset":25312,
			"target":34962
		},
		{
			"buffer":0,
			"byteLength":156,
			"byteOffset":25568,
			"target":34963
		},
		{
			"buffer":0,
			"byteLength":2928,
			"byteOffset":25724,
			"target":34962
		},
		{
			"buffer":0,
			"byteLength":2928,
			"byteOffset":28652,
			"target":34962
		},
		{
			"buffer":0,
			"byteLength":1952,
			"byteOffset":31580,
			"target":34962
		},
		{
			"buffer":0,
			"byteLength":876,
			"byteOffset":33532,
			"target":34963
		}
	],
	"buffers":[
		{
			"byteLength":34408,
			"uri":"deskChairMini.bin"
		}
	]
}
