{
	"asset":{
		"generator":"Khronos glTF Blender I/O v4.5.47",
		"version":"2.0"
	},
	"scene":0,
	"scenes":[
		{
			"name":"Scene",
			"nodes":[
				0
			]
		}
	],
	"nodes":[
		{
			"mesh":0,
			"name":"\u684c\u6905.044"
		}
	],
	"meshes":[
		{
			"name":"\u7acb\u65b9\u4f53.009",
			"primitives":[
				{
					"attributes":{
						"POSITION":0,
						"NORMAL":1,
						"TEXCOORD_0":2
					},
					"indices":3
				}
			]
		}
	],
	"accessors":[
		{
			"bufferView":0,
			"componentType":5126,
			"count":47160,
			"max":[
				-4.37999963760376,
				2.369999885559082,
				15.65000057220459
			],
			"min":[
				-6.497213840484619,
				0.33999931812286377,
				12.050000190734863
			],
			"type":"VEC3"
		},
		{
			"bufferView":1,
			"componentType":5126,
			"count":47160,
			"type":"VEC3"
		},
		{
			"bufferView":2,
			"componentType":5126,
			"count":47160,
			"type":"VEC2"
		},
		{
			"bufferView":3,
			"componentType":5123,
			"count":71028,
			"type":"SCALAR"
		}
	],
	"bufferViews":[
		{
			"buffer":0,
			"byteLength":565920,
			"byteOffset":0,
			"target":34962
		},
		{
			"buffer":0,
			"byteLength":565920,
			"byteOffset":565920,
			"target":34962
		},
		{
			"buffer":0,
			"byteLength":377280,
			"byteOffset":1131840,
			"target":34962
		},
		{
			"buffer":0,
			"byteLength":142056,
			"byteOffset":1509120,
			"target":34963
		}
	],
	"buffers":[
		{
			"byteLength":1651176,
			"uri":"deskChairPro.bin"
		}
	]
}
