{
	"asset":{
		"generator":"Khronos glTF Blender I/O v4.5.47",
		"version":"2.0"
	},
	"extensionsUsed":[
		"KHR_materials_specular",
		"KHR_materials_ior"
	],
	"scene":0,
	"scenes":[
		{
			"name":"Scene",
			"nodes":[
				0
			]
		}
	],
	"nodes":[
		{
			"mesh":0,
			"name":"\u684c\u6905",
			"translation":[
				0.4214285910129547,
				0.718461275100708,
				-1.0100915431976318
			]
		}
	],
	"materials":[
		{
			"doubleSided":true,
			"name":"\u84dd\u8272\u57ab\u5b50",
			"pbrMetallicRoughness":{
				"baseColorFactor":[
					0.0035381887573748827,
					0.055925093591213226,
					0.6109125018119812,
					1
				],
				"metallicFactor":0,
				"roughnessFactor":0.5
			}
		},
		{
			"doubleSided":true,
			"extensions":{
				"KHR_materials_specular":{
					"specularFactor":0.03999999910593033
				},
				"KHR_materials_ior":{
					"ior":1.4500000476837158
				}
			},
			"name":"2K_Metal11"
		},
		{
			"doubleSided":true,
			"name":"\u6750\u8d28",
			"pbrMetallicRoughness":{
				"baseColorFactor":[
					0.061463940888643265,
					0.061463940888643265,
					0.061463940888643265,
					1
				],
				"metallicFactor":0,
				"roughnessFactor":0.5
			}
		},
		{
			"doubleSided":true,
			"name":"\u6750\u8d28.002",
			"pbrMetallicRoughness":{
				"baseColorFactor":[
					0.800000011920929,
					0.800000011920929,
					0.800000011920929,
					1
				],
				"metallicFactor":0,
				"roughnessFactor":0.5
			}
		}
	],
	"meshes":[
		{
			"name":"\u5e73\u9762.001",
			"primitives":[
				{
					"attributes":{
						"POSITION":0,
						"NORMAL":1,
						"TEXCOORD_0":2
					},
					"indices":3,
					"material":0
				},
				{
					"attributes":{
						"POSITION":4,
						"NORMAL":5,
						"TEXCOORD_0":6
					},
					"indices":7,
					"material":1
				},
				{
					"attributes":{
						"POSITION":8,
						"NORMAL":9,
						"TEXCOORD_0":10
					},
					"indices":11,
					"material":2
				},
				{
					"attributes":{
						"POSITION":12,
						"NORMAL":13,
						"TEXCOORD_0":14
					},
					"indices":15,
					"material":3
				}
			]
		}
	],
	"accessors":[
		{
			"bufferView":0,
			"componentType":5126,
			"count":614,
			"max":[
				0.19085882604122162,
				0.5305842757225037,
				0.3011837601661682
			],
			"min":[
				-0.42888638377189636,
				0.01476006768643856,
				-0.3011837303638458
			],
			"type":"VEC3"
		},
		{
			"bufferView":1,
			"componentType":5126,
			"count":614,
			"type":"VEC3"
		},
		{
			"bufferView":2,
			"componentType":5126,
			"count":614,
			"type":"VEC2"
		},
		{
			"bufferView":3,
			"componentType":5123,
			"count":936,
			"type":"SCALAR"
		},
		{
			"bufferView":4,
			"componentType":5126,
			"count":1088,
			"max":[
				0.2336747646331787,
				0.5809842348098755,
				0.34183335304260254
			],
			"min":[
				-0.4731851816177368,
				-0.42986607551574707,
				-0.3418335020542145
			],
			"type":"VEC3"
		},
		{
			"bufferView":5,
			"componentType":5126,
			"count":1088,
			"type":"VEC3"
		},
		{
			"bufferView":6,
			"componentType":5126,
			"count":1088,
			"type":"VEC2"
		},
		{
			"bufferView":7,
			"componentType":5123,
			"count":1872,
			"type":"SCALAR"
		},
		{
			"bufferView":8,
			"componentType":5126,
			"count":2654,
			"max":[
				-0.5235766768455505,
				0.5708461403846741,
				0.630000114440918
			],
			"min":[
				-1.2741680145263672,
				-0.4218573570251465,
				-0.6299998760223389
			],
			"type":"VEC3"
		},
		{
			"bufferView":9,
			"componentType":5126,
			"count":2654,
			"type":"VEC3"
		},
		{
			"bufferView":10,
			"componentType":5126,
			"count":2654,
			"type":"VEC2"
		},
		{
			"bufferView":11,
			"componentType":5123,
			"count":5424,
			"type":"SCALAR"
		},
		{
			"bufferView":12,
			"componentType":5126,
			"count":230,
			"max":[
				-0.529801607131958,
				0.5708461403846741,
				0.630000114440918
			],
			"min":[
				-1.159801721572876,
				0.5078461170196533,
				-0.6299998760223389
			],
			"type":"VEC3"
		},
		{
			"bufferView":13,
			"componentType":5126,
			"count":230,
			"type":"VEC3"
		},
		{
			"bufferView":14,
			"componentType":5126,
			"count":230,
			"type":"VEC2"
		},
		{
			"bufferView":15,
			"componentType":5123,
			"count":660,
			"type":"SCALAR"
		}
	],
	"bufferViews":[
		{
			"buffer":0,
			"byteLength":7368,
			"byteOffset":0,
			"target":34962
		},
		{
			"buffer":0,
			"byteLength":7368,
			"byteOffset":7368,
			"target":34962
		},
		{
			"buffer":0,
			"byteLength":4912,
			"byteOffset":14736,
			"target":34962
		},
		{
			"buffer":0,
			"byteLength":1872,
			"byteOffset":19648,
			"target":34963
		},
		{
			"buffer":0,
			"byteLength":13056,
			"byteOffset":21520,
			"target":34962
		},
		{
			"buffer":0,
			"byteLength":13056,
			"byteOffset":34576,
			"target":34962
		},
		{
			"buffer":0,
			"byteLength":8704,
			"byteOffset":47632,
			"target":34962
		},
		{
			"buffer":0,
			"byteLength":3744,
			"byteOffset":56336,
			"target":34963
		},
		{
			"buffer":0,
			"byteLength":31848,
			"byteOffset":60080,
			"target":34962
		},
		{
			"buffer":0,
			"byteLength":31848,
			"byteOffset":91928,
			"target":34962
		},
		{
			"buffer":0,
			"byteLength":21232,
			"byteOffset":123776,
			"target":34962
		},
		{
			"buffer":0,
			"byteLength":10848,
			"byteOffset":145008,
			"target":34963
		},
		{
			"buffer":0,
			"byteLength":2760,
			"byteOffset":155856,
			"target":34962
		},
		{
			"buffer":0,
			"byteLength":2760,
			"byteOffset":158616,
			"target":34962
		},
		{
			"buffer":0,
			"byteLength":1840,
			"byteOffset":161376,
			"target":34962
		},
		{
			"buffer":0,
			"byteLength":1320,
			"byteOffset":163216,
			"target":34963
		}
	],
	"buffers":[
		{
			"byteLength":164536,
			"uri":"deskChairMiddle.bin"
		}
	]
}
