{
	"asset":{
		"generator":"Khronos glTF Blender I/O v4.5.47",
		"version":"2.0"
	},
	"extensionsUsed":[
		"KHR_materials_specular",
		"KHR_materials_ior"
	],
	"scene":0,
	"scenes":[
		{
			"name":"Scene",
			"nodes":[
				0
			]
		}
	],
	"nodes":[
		{
			"mesh":0,
			"name":"\u684c\u6905",
			"translation":[
				-0.800000011920929,
				0.6299998760223389,
				1.899999976158142
			]
		}
	],
	"materials":[
		{
			"doubleSided":true,
			"extensions":{
				"KHR_materials_specular":{
					"specularFactor":0.03999999910593033
				},
				"KHR_materials_ior":{
					"ior":1.4500000476837158
				}
			},
			"name":"2K_Wood05",
			"pbrMetallicRoughness":{
				"metallicFactor":0
			}
		},
		{
			"doubleSided":true,
			"extensions":{
				"KHR_materials_specular":{
					"specularFactor":0.03999999910593033
				},
				"KHR_materials_ior":{
					"ior":1.4500000476837158
				}
			},
			"name":"2K_Metal12"
		}
	],
	"meshes":[
		{
			"name":"\u7acb\u65b9\u4f53.006",
			"primitives":[
				{
					"attributes":{
						"POSITION":0,
						"NORMAL":1,
						"TEXCOORD_0":2
					},
					"indices":3,
					"material":0
				},
				{
					"attributes":{
						"POSITION":4,
						"NORMAL":5,
						"TEXCOORD_0":6
					},
					"indices":7,
					"material":1
				}
			]
		}
	],
	"accessors":[
		{
			"bufferView":0,
			"componentType":5126,
			"count":94,
			"max":[
				0.23631370067596436,
				0.3656684160232544,
				0.5399999022483826
			],
			"min":[
				-1.159999966621399,
				-0.022178569808602333,
				-0.5400001406669617
			],
			"type":"VEC3"
		},
		{
			"bufferView":1,
			"componentType":5126,
			"count":94,
			"type":"VEC3"
		},
		{
			"bufferView":2,
			"componentType":5126,
			"count":94,
			"type":"VEC2"
		},
		{
			"bufferView":3,
			"componentType":5123,
			"count":180,
			"type":"SCALAR"
		},
		{
			"bufferView":4,
			"componentType":5126,
			"count":880,
			"max":[
				0.22499999403953552,
				0.3656684160232544,
				0.5399999022483826
			],
			"min":[
				-1.159999966621399,
				-0.39182141423225403,
				-0.5400001406669617
			],
			"type":"VEC3"
		},
		{
			"bufferView":5,
			"componentType":5126,
			"count":880,
			"type":"VEC3"
		},
		{
			"bufferView":6,
			"componentType":5126,
			"count":880,
			"type":"VEC2"
		},
		{
			"bufferView":7,
			"componentType":5123,
			"count":1440,
			"type":"SCALAR"
		}
	],
	"bufferViews":[
		{
			"buffer":0,
			"byteLength":1128,
			"byteOffset":0,
			"target":34962
		},
		{
			"buffer":0,
			"byteLength":1128,
			"byteOffset":1128,
			"target":34962
		},
		{
			"buffer":0,
			"byteLength":752,
			"byteOffset":2256,
			"target":34962
		},
		{
			"buffer":0,
			"byteLength":360,
			"byteOffset":3008,
			"target":34963
		},
		{
			"buffer":0,
			"byteLength":10560,
			"byteOffset":3368,
			"target":34962
		},
		{
			"buffer":0,
			"byteLength":10560,
			"byteOffset":13928,
			"target":34962
		},
		{
			"buffer":0,
			"byteLength":7040,
			"byteOffset":24488,
			"target":34962
		},
		{
			"buffer":0,
			"byteLength":2880,
			"byteOffset":31528,
			"target":34963
		}
	],
	"buffers":[
		{
			"byteLength":34408,
			"uri":"deskChairMini.bin"
		}
	]
}
