{
	"asset":{
		"generator":"Khronos glTF Blender I/O v4.5.47",
		"version":"2.0"
	},
	"scene":0,
	"scenes":[
		{
			"name":"Scene",
			"nodes":[
				0,
				1,
				2
			]
		}
	],
	"nodes":[
		{
			"mesh":0,
			"name":"\u4e66\u58f3",
			"translation":[
				0,
				0.03999999910593033,
				0
			]
		},
		{
			"mesh":1,
			"name":"\u5706\u73af",
			"translation":[
				-0.47999998927116394,
				0,
				0
			]
		},
		{
			"mesh":2,
			"name":"\u4e66\u9875",
			"translation":[
				-0.47999998927116394,
				0,
				0
			]
		}
	],
	"materials":[
		{
			"doubleSided":true,
			"name":"\u4e66\u540d",
			"pbrMetallicRoughness":{
				"baseColorTexture":{
					"index":0
				},
				"metallicFactor":0,
				"roughnessFactor":0.5
			}
		},
		{
			"doubleSided":true,
			"name":"\u4e66\u58f3",
			"pbrMetallicRoughness":{
				"baseColorFactor":[
					0.4286879599094391,
					0.2158607691526413,
					0.026241278275847435,
					1
				],
				"metallicFactor":0,
				"roughnessFactor":0.5
			}
		},
		{
			"doubleSided":true,
			"name":"\u4e66\u9875",
			"pbrMetallicRoughness":{
				"baseColorTexture":{
					"index":1
				},
				"metallicFactor":0,
				"roughnessFactor":0.5
			}
		}
	],
	"meshes":[
		{
			"name":"\u7acb\u65b9\u4f53.001",
			"primitives":[
				{
					"attributes":{
						"POSITION":0,
						"NORMAL":1,
						"TEXCOORD_0":2
					},
					"indices":3,
					"material":0
				},
				{
					"attributes":{
						"POSITION":4,
						"NORMAL":5,
						"TEXCOORD_0":6
					},
					"indices":7,
					"material":1
				}
			]
		},
		{
			"name":"\u5706\u73af.001",
			"primitives":[
				{
					"attributes":{
						"POSITION":8,
						"NORMAL":9,
						"TEXCOORD_0":10,
						"COLOR_0":11,
						"COLOR_1":12
					},
					"indices":13,
					"material":1
				}
			]
		},
		{
			"name":"\u5706\u73af.002",
			"primitives":[
				{
					"attributes":{
						"POSITION":14,
						"NORMAL":15,
						"TEXCOORD_0":16
					},
					"indices":17,
					"material":2
				}
			]
		}
	],
	"textures":[
		{
			"sampler":0,
			"source":0
		},
		{
			"sampler":0,
			"source":1
		}
	],
	"images":[
		{
			"mimeType":"image/jpeg",
			"name":"\u5927\u5b66\u7ae0\u53e5(1)",
			"uri":"%E5%A4%A7%E5%AD%A6%E7%AB%A0%E5%8F%A5%281%29.jpg"
		},
		{
			"mimeType":"image/png",
			"name":"fECkBrvUA_1",
			"uri":"fECkBrvUA_1.png"
		}
	],
	"accessors":[
		{
			"bufferView":0,
			"componentType":5126,
			"count":4,
			"max":[
				0.49646446108818054,
				-0.010049130767583847,
				-0.07852926850318909
			],
			"min":[
				-0.49646446108818054,
				-0.05060435086488724,
				-0.6992480158805847
			],
			"type":"VEC3"
		},
		{
			"bufferView":1,
			"componentType":5126,
			"count":4,
			"type":"VEC3"
		},
		{
			"bufferView":2,
			"componentType":5126,
			"count":4,
			"type":"VEC2"
		},
		{
			"bufferView":3,
			"componentType":5123,
			"count":6,
			"type":"SCALAR"
		},
		{
			"bufferView":4,
			"componentType":5126,
			"count":204,
			"max":[
				0.5,
				0.009555324912071228,
				0.699999988079071
			],
			"min":[
				-0.5,
				-0.05999999865889549,
				-0.699999988079071
			],
			"type":"VEC3"
		},
		{
			"bufferView":5,
			"componentType":5126,
			"count":204,
			"type":"VEC3"
		},
		{
			"bufferView":6,
			"componentType":5126,
			"count":204,
			"type":"VEC2"
		},
		{
			"bufferView":7,
			"componentType":5123,
			"count":318,
			"type":"SCALAR"
		},
		{
			"bufferView":8,
			"componentType":5126,
			"count":280,
			"max":[
				0.9599999785423279,
				0.07000000029802322,
				0.07000000029802322
			],
			"min":[
				0,
				-4.1962941565998335e-08,
				-0.07000000029802322
			],
			"type":"VEC3"
		},
		{
			"bufferView":9,
			"componentType":5126,
			"count":280,
			"type":"VEC3"
		},
		{
			"bufferView":10,
			"componentType":5126,
			"count":280,
			"type":"VEC2"
		},
		{
			"bufferView":11,
			"componentType":5121,
			"count":280,
			"normalized":true,
			"type":"VEC4"
		},
		{
			"bufferView":12,
			"componentType":5123,
			"count":280,
			"normalized":true,
			"type":"VEC4"
		},
		{
			"bufferView":13,
			"componentType":5123,
			"count":618,
			"type":"SCALAR"
		},
		{
			"bufferView":14,
			"componentType":5126,
			"count":126079,
			"max":[
				0.9600000381469727,
				0.663776159286499,
				0.6530278325080872
			],
			"min":[
				-2.9802322387695312e-08,
				0.016536705195903778,
				-0.6537286043167114
			],
			"type":"VEC3"
		},
		{
			"bufferView":15,
			"componentType":5126,
			"count":126079,
			"type":"VEC3"
		},
		{
			"bufferView":16,
			"componentType":5126,
			"count":126079,
			"type":"VEC2"
		},
		{
			"bufferView":17,
			"componentType":5125,
			"count":376584,
			"type":"SCALAR"
		}
	],
	"bufferViews":[
		{
			"buffer":0,
			"byteLength":48,
			"byteOffset":0,
			"target":34962
		},
		{
			"buffer":0,
			"byteLength":48,
			"byteOffset":48,
			"target":34962
		},
		{
			"buffer":0,
			"byteLength":32,
			"byteOffset":96,
			"target":34962
		},
		{
			"buffer":0,
			"byteLength":12,
			"byteOffset":128,
			"target":34963
		},
		{
			"buffer":0,
			"byteLength":2448,
			"byteOffset":140,
			"target":34962
		},
		{
			"buffer":0,
			"byteLength":2448,
			"byteOffset":2588,
			"target":34962
		},
		{
			"buffer":0,
			"byteLength":1632,
			"byteOffset":5036,
			"target":34962
		},
		{
			"buffer":0,
			"byteLength":636,
			"byteOffset":6668,
			"target":34963
		},
		{
			"buffer":0,
			"byteLength":3360,
			"byteOffset":7304,
			"target":34962
		},
		{
			"buffer":0,
			"byteLength":3360,
			"byteOffset":10664,
			"target":34962
		},
		{
			"buffer":0,
			"byteLength":2240,
			"byteOffset":14024,
			"target":34962
		},
		{
			"buffer":0,
			"byteLength":1120,
			"byteOffset":16264,
			"target":34962
		},
		{
			"buffer":0,
			"byteLength":2240,
			"byteOffset":17384,
			"target":34962
		},
		{
			"buffer":0,
			"byteLength":1236,
			"byteOffset":19624,
			"target":34963
		},
		{
			"buffer":0,
			"byteLength":1512948,
			"byteOffset":20860,
			"target":34962
		},
		{
			"buffer":0,
			"byteLength":1512948,
			"byteOffset":1533808,
			"target":34962
		},
		{
			"buffer":0,
			"byteLength":1008632,
			"byteOffset":3046756,
			"target":34962
		},
		{
			"buffer":0,
			"byteLength":1506336,
			"byteOffset":4055388,
			"target":34963
		}
	],
	"samplers":[
		{
			"magFilter":9729,
			"minFilter":9987
		}
	],
	"buffers":[
		{
			"byteLength":5561724,
			"uri":"ancient_books.bin"
		}
	]
}
