{
	"asset":{
		"generator":"Khronos glTF Blender I/O v4.5.47",
		"version":"2.0"
	},
	"scene":0,
	"scenes":[
		{
			"name":"Scene",
			"nodes":[
				0,
				1,
				2,
				3,
				4
			]
		}
	],
	"nodes":[
		{
			"mesh":0,
			"name":"Plane",
			"scale":[
				1,
				1,
				0.22451722621917725
			],
			"translation":[
				1.5695791244506836,
				-0.5343067646026611,
				0.745919942855835
			]
		},
		{
			"mesh":1,
			"name":"Plane.001",
			"scale":[
				0.9267511963844299,
				1,
				0.22451722621917725
			],
			"translation":[
				1.5695791244506836,
				-0.4679831266403198,
				0.745919942855835
			]
		},
		{
			"mesh":2,
			"name":"Plane.002",
			"rotation":[
				0.20409329235553741,
				0,
				0,
				0.9789515137672424
			],
			"scale":[
				0.9302589297294617,
				0.8929436206817627,
				1.1090540885925293
			],
			"translation":[
				1.5718029737472534,
				-0.13465070724487305,
				-0.24500727653503418
			]
		},
		{
			"mesh":3,
			"name":"Plane.003",
			"rotation":[
				0.25938108563423157,
				0,
				0,
				0.9657750725746155
			],
			"scale":[
				0.9302589297294617,
				0.8929436206817627,
				1.1090540885925293
			],
			"translation":[
				1.5718029737472534,
				-0.03968051075935364,
				-0.11779141426086426
			]
		},
		{
			"mesh":4,
			"name":"Plane.004",
			"rotation":[
				0.34954869747161865,
				0,
				0,
				0.9369181990623474
			],
			"scale":[
				0.9302589297294617,
				0.8929436206817627,
				1.1090540885925293
			],
			"translation":[
				1.5718029737472534,
				0.11955142021179199,
				0.004123806953430176
			]
		}
	],
	"materials":[
		{
			"doubleSided":true,
			"name":"Material",
			"pbrMetallicRoughness":{
				"baseColorFactor":[
					0,
					0.03423324599862099,
					0.8007099628448486,
					1
				],
				"metallicFactor":0
			}
		},
		{
			"doubleSided":true,
			"name":"Material.007",
			"pbrMetallicRoughness":{
				"baseColorFactor":[
					0.800000011920929,
					0.800000011920929,
					0.800000011920929,
					1
				],
				"metallicFactor":0
			}
		}
	],
	"meshes":[
		{
			"name":"Plane",
			"primitives":[
				{
					"attributes":{
						"POSITION":0,
						"NORMAL":1,
						"TEXCOORD_0":2
					},
					"indices":3,
					"material":0
				}
			]
		},
		{
			"name":"Plane.001",
			"primitives":[
				{
					"attributes":{
						"POSITION":4,
						"NORMAL":5,
						"TEXCOORD_0":6
					},
					"indices":7,
					"material":1
				}
			]
		},
		{
			"name":"Plane.002",
			"primitives":[
				{
					"attributes":{
						"POSITION":8,
						"NORMAL":9,
						"TEXCOORD_0":10
					},
					"indices":11,
					"material":1
				}
			]
		},
		{
			"name":"Plane.003",
			"primitives":[
				{
					"attributes":{
						"POSITION":12,
						"NORMAL":13,
						"TEXCOORD_0":14
					},
					"indices":15,
					"material":1
				}
			]
		},
		{
			"name":"Plane.004",
			"primitives":[
				{
					"attributes":{
						"POSITION":16,
						"NORMAL":17,
						"TEXCOORD_0":18
					},
					"indices":19,
					"material":1
				}
			]
		}
	],
	"accessors":[
		{
			"bufferView":0,
			"componentType":5126,
			"count":16548,
			"max":[
				0.9999745488166809,
				0.3093581199645996,
				9.909701347351074
			],
			"min":[
				-0.9999745488166809,
				-0.16620269417762756,
				-9.90970230102539
			],
			"type":"VEC3"
		},
		{
			"bufferView":1,
			"componentType":5126,
			"count":16548,
			"type":"VEC3"
		},
		{
			"bufferView":2,
			"componentType":5126,
			"count":16548,
			"type":"VEC2"
		},
		{
			"bufferView":3,
			"componentType":5123,
			"count":99264,
			"type":"SCALAR"
		},
		{
			"bufferView":4,
			"componentType":5126,
			"count":16546,
			"max":[
				0.9999873042106628,
				0.44514569640159607,
				9.572112083435059
			],
			"min":[
				-0.9999873042106628,
				-0.1560724973678589,
				-9.572112083435059
			],
			"type":"VEC3"
		},
		{
			"bufferView":5,
			"componentType":5126,
			"count":16546,
			"type":"VEC3"
		},
		{
			"bufferView":6,
			"componentType":5126,
			"count":16546,
			"type":"VEC2"
		},
		{
			"bufferView":7,
			"componentType":5123,
			"count":99264,
			"type":"SCALAR"
		},
		{
			"bufferView":8,
			"componentType":5126,
			"count":5764,
			"max":[
				1,
				1.7854437828063965,
				2.3389456272125244
			],
			"min":[
				-1,
				-0.05000000074505806,
				-1
			],
			"type":"VEC3"
		},
		{
			"bufferView":9,
			"componentType":5126,
			"count":5764,
			"type":"VEC3"
		},
		{
			"bufferView":10,
			"componentType":5126,
			"count":5764,
			"type":"VEC2"
		},
		{
			"bufferView":11,
			"componentType":5123,
			"count":8712,
			"type":"SCALAR"
		},
		{
			"bufferView":12,
			"componentType":5126,
			"count":11440,
			"max":[
				1,
				2.036543607711792,
				1.872410774230957
			],
			"min":[
				-1.004780888557434,
				-0.12301826477050781,
				-1.000000238418579
			],
			"type":"VEC3"
		},
		{
			"bufferView":13,
			"componentType":5126,
			"count":11440,
			"type":"VEC3"
		},
		{
			"bufferView":14,
			"componentType":5126,
			"count":11440,
			"type":"VEC2"
		},
		{
			"bufferView":15,
			"componentType":5123,
			"count":17424,
			"type":"SCALAR"
		},
		{
			"bufferView":16,
			"componentType":5126,
			"count":5752,
			"max":[
				1,
				2.3143229484558105,
				1.1893831491470337
			],
			"min":[
				-1,
				-0.1449146270751953,
				-1
			],
			"type":"VEC3"
		},
		{
			"bufferView":17,
			"componentType":5126,
			"count":5752,
			"type":"VEC3"
		},
		{
			"bufferView":18,
			"componentType":5126,
			"count":5752,
			"type":"VEC2"
		},
		{
			"bufferView":19,
			"componentType":5123,
			"count":8712,
			"type":"SCALAR"
		}
	],
	"bufferViews":[
		{
			"buffer":0,
			"byteLength":198576,
			"byteOffset":0,
			"target":34962
		},
		{
			"buffer":0,
			"byteLength":198576,
			"byteOffset":198576,
			"target":34962
		},
		{
			"buffer":0,
			"byteLength":132384,
			"byteOffset":397152,
			"target":34962
		},
		{
			"buffer":0,
			"byteLength":198528,
			"byteOffset":529536,
			"target":34963
		},
		{
			"buffer":0,
			"byteLength":198552,
			"byteOffset":728064,
			"target":34962
		},
		{
			"buffer":0,
			"byteLength":198552,
			"byteOffset":926616,
			"target":34962
		},
		{
			"buffer":0,
			"byteLength":132368,
			"byteOffset":1125168,
			"target":34962
		},
		{
			"buffer":0,
			"byteLength":198528,
			"byteOffset":1257536,
			"target":34963
		},
		{
			"buffer":0,
			"byteLength":69168,
			"byteOffset":1456064,
			"target":34962
		},
		{
			"buffer":0,
			"byteLength":69168,
			"byteOffset":1525232,
			"target":34962
		},
		{
			"buffer":0,
			"byteLength":46112,
			"byteOffset":1594400,
			"target":34962
		},
		{
			"buffer":0,
			"byteLength":17424,
			"byteOffset":1640512,
			"target":34963
		},
		{
			"buffer":0,
			"byteLength":137280,
			"byteOffset":1657936,
			"target":34962
		},
		{
			"buffer":0,
			"byteLength":137280,
			"byteOffset":1795216,
			"target":34962
		},
		{
			"buffer":0,
			"byteLength":91520,
			"byteOffset":1932496,
			"target":34962
		},
		{
			"buffer":0,
			"byteLength":34848,
			"byteOffset":2024016,
			"target":34963
		},
		{
			"buffer":0,
			"byteLength":69024,
			"byteOffset":2058864,
			"target":34962
		},
		{
			"buffer":0,
			"byteLength":69024,
			"byteOffset":2127888,
			"target":34962
		},
		{
			"buffer":0,
			"byteLength":46016,
			"byteOffset":2196912,
			"target":34962
		},
		{
			"buffer":0,
			"byteLength":17424,
			"byteOffset":2242928,
			"target":34963
		}
	],
	"buffers":[
		{
			"byteLength":2260352,
			"uri":"Book.bin"
		}
	]
}
