{
	"asset":{
		"generator":"Khronos glTF Blender I/O v4.5.47",
		"version":"2.0"
	},
	"scene":0,
	"scenes":[
		{
			"name":"Scene",
			"nodes":[
				0,
				1,
				2,
				3,
				4,
				5,
				6,
				7,
				8,
				9,
				10,
				11,
				12,
				13,
				14,
				15,
				16,
				17
			]
		}
	],
	"nodes":[
		{
			"mesh":0,
			"name":"\u623f\u95f4\u4e3b\u4f53",
			"rotation":[
				0,
				-1,
				0,
				7.549790126404332e-08
			],
			"translation":[
				0.12574434280395508,
				0,
				0
			]
		},
		{
			"mesh":1,
			"name":"\u67f1",
			"rotation":[
				0,
				-1,
				0,
				7.549790126404332e-08
			],
			"translation":[
				0.12574422359466553,
				3.200000047683716,
				-7.260004043579102
			]
		},
		{
			"mesh":2,
			"name":"\u67f1.001",
			"rotation":[
				0,
				-1,
				0,
				7.549790126404332e-08
			],
			"translation":[
				0.12574458122253418,
				3.200000047683716,
				7.339996337890625
			]
		},
		{
			"mesh":3,
			"name":"4*3\u7a97\u6237",
			"rotation":[
				0,
				-1,
				0,
				7.549790126404332e-08
			],
			"translation":[
				-3.07425594329834,
				3.5,
				-7.200004577636719
			]
		},
		{
			"mesh":3,
			"name":"4*3\u7a97\u6237.001",
			"rotation":[
				0,
				-1,
				0,
				7.549790126404332e-08
			],
			"translation":[
				3.325744152069092,
				3.5,
				-7.200004577636719
			]
		},
		{
			"mesh":4,
			"name":"5.5*3\u7a97\u6237",
			"rotation":[
				0,
				-1,
				0,
				7.549790126404332e-08
			],
			"translation":[
				-4.874255180358887,
				3.5,
				7.199995040893555
			]
		},
		{
			"mesh":4,
			"name":"5.5*3\u7a97\u6237.001",
			"rotation":[
				0,
				-1,
				0,
				7.549790126404332e-08
			],
			"translation":[
				5.125743389129639,
				3.5,
				7.199994087219238
			]
		},
		{
			"mesh":5,
			"name":"\u53f0\u9636",
			"rotation":[
				0,
				-1,
				0,
				7.549790126404332e-08
			],
			"scale":[
				2.5,
				1,
				2.0666663646698
			],
			"translation":[
				-8.036869049072266,
				0.3665306568145752,
				0.29122400283813477
			]
		},
		{
			"mesh":6,
			"name":"\u5730\u677f",
			"rotation":[
				0,
				-1,
				0,
				7.549790126404332e-08
			],
			"translation":[
				0.12574434280395508,
				0,
				-4.5299530029296875e-06
			]
		},
		{
			"mesh":7,
			"name":"\u5929\u82b1\u677f",
			"rotation":[
				0,
				-1,
				0,
				7.549790126404332e-08
			],
			"translation":[
				0.15799522399902344,
				6,
				-4.5299530029296875e-06
			]
		},
		{
			"mesh":8,
			"name":"\u8bb2\u53f0",
			"rotation":[
				0,
				-1,
				0,
				7.549790126404332e-08
			],
			"scale":[
				1.399999976158142,
				1,
				1
			],
			"translation":[
				-6.92425537109375,
				1.3000000715255737,
				2.3874056339263916
			]
		},
		{
			"mesh":9,
			"name":"\u5927\u9ed1\u677f",
			"rotation":[
				0,
				-1,
				0,
				7.549790126404332e-08
			],
			"translation":[
				-9.573440551757812,
				2.75,
				-0.1125946044921875
			]
		},
		{
			"mesh":10,
			"name":"\u5927\u706f",
			"rotation":[
				0,
				-1,
				0,
				7.549790126404332e-08
			],
			"translation":[
				-6.874255180358887,
				5.2710466384887695,
				-4.5299530029296875e-06
			]
		},
		{
			"mesh":11,
			"name":"\u62a4\u773c\u706f",
			"rotation":[
				0,
				-1,
				0,
				7.549790126404332e-08
			],
			"scale":[
				1,
				1,
				0.699999988079071
			],
			"translation":[
				7.125744819641113,
				5.810000419616699,
				4.499994277954102
			]
		},
		{
			"mesh":12,
			"name":"\u95e8\u6846",
			"translation":[
				-7.183130264282227,
				2.3838744163513184,
				-7.375003814697266
			]
		},
		{
			"mesh":13,
			"name":"\u95e8",
			"translation":[
				-7.179999351501465,
				2.380000114440918,
				-7.375
			]
		},
		{
			"mesh":12,
			"name":"\u95e8\u6846.001",
			"translation":[
				7.366870403289795,
				2.3838744163513184,
				-7.375004768371582
			]
		},
		{
			"mesh":13,
			"name":"\u95e8.001",
			"translation":[
				7.3600006103515625,
				2.380000114440918,
				-7.375
			]
		}
	],
	"meshes":[
		{
			"name":"\u5e73\u9762.005",
			"primitives":[
				{
					"attributes":{
						"POSITION":0,
						"NORMAL":1,
						"TEXCOORD_0":2
					},
					"indices":3
				}
			]
		},
		{
			"name":"\u7acb\u65b9\u4f53.005",
			"primitives":[
				{
					"attributes":{
						"POSITION":4,
						"NORMAL":5,
						"TEXCOORD_0":6
					},
					"indices":7
				}
			]
		},
		{
			"name":"\u7acb\u65b9\u4f53.001",
			"primitives":[
				{
					"attributes":{
						"POSITION":8,
						"NORMAL":9,
						"TEXCOORD_0":10
					},
					"indices":7
				}
			]
		},
		{
			"name":"\u5e73\u9762.007",
			"primitives":[
				{
					"attributes":{
						"POSITION":11,
						"NORMAL":12,
						"TEXCOORD_0":13
					},
					"indices":14
				}
			]
		},
		{
			"name":"\u5e73\u9762.008",
			"primitives":[
				{
					"attributes":{
						"POSITION":15,
						"NORMAL":16,
						"TEXCOORD_0":17
					},
					"indices":18
				}
			]
		},
		{
			"name":"\u7acb\u65b9\u4f53.007",
			"primitives":[
				{
					"attributes":{
						"POSITION":19,
						"NORMAL":20,
						"TEXCOORD_0":21
					},
					"indices":7
				}
			]
		},
		{
			"name":"\u5e73\u9762.004",
			"primitives":[
				{
					"attributes":{
						"POSITION":22,
						"NORMAL":23,
						"TEXCOORD_0":24
					},
					"indices":25
				}
			]
		},
		{
			"name":"\u5e73\u9762.012",
			"primitives":[
				{
					"attributes":{
						"POSITION":26,
						"NORMAL":27,
						"TEXCOORD_0":28
					},
					"indices":29
				}
			]
		},
		{
			"name":"\u5e73\u9762.002",
			"primitives":[
				{
					"attributes":{
						"POSITION":30,
						"NORMAL":31,
						"TEXCOORD_0":32
					},
					"indices":33
				}
			]
		},
		{
			"name":"\u7acb\u65b9\u4f53.006",
			"primitives":[
				{
					"attributes":{
						"POSITION":34,
						"NORMAL":35,
						"TEXCOORD_0":36
					},
					"indices":37
				}
			]
		},
		{
			"name":"\u7acb\u65b9\u4f53.003",
			"primitives":[
				{
					"attributes":{
						"POSITION":38,
						"NORMAL":39,
						"TEXCOORD_0":40
					},
					"indices":41
				}
			]
		},
		{
			"name":"\u5e73\u9762.013",
			"primitives":[
				{
					"attributes":{
						"POSITION":42,
						"NORMAL":43,
						"TEXCOORD_0":44
					},
					"indices":45
				}
			]
		},
		{
			"name":"\u5e73\u9762.010",
			"primitives":[
				{
					"attributes":{
						"POSITION":46,
						"NORMAL":47,
						"TEXCOORD_0":48
					},
					"indices":49
				}
			]
		},
		{
			"name":"\u7acb\u65b9\u4f53",
			"primitives":[
				{
					"attributes":{
						"POSITION":50,
						"NORMAL":51,
						"TEXCOORD_0":52
					},
					"indices":53
				}
			]
		}
	],
	"accessors":[
		{
			"bufferView":0,
			"componentType":5126,
			"count":256,
			"max":[
				10,
				6.199999809265137,
				7.500000476837158
			],
			"min":[
				-10,
				0,
				-7.500000476837158
			],
			"type":"VEC3"
		},
		{
			"bufferView":1,
			"componentType":5126,
			"count":256,
			"type":"VEC3"
		},
		{
			"bufferView":2,
			"componentType":5126,
			"count":256,
			"type":"VEC2"
		},
		{
			"bufferView":3,
			"componentType":5123,
			"count":612,
			"type":"SCALAR"
		},
		{
			"bufferView":4,
			"componentType":5126,
			"count":24,
			"max":[
				0.6000000238418579,
				3.25,
				0.40000003576278687
			],
			"min":[
				-0.6000000238418579,
				-3.25,
				-0.40000003576278687
			],
			"type":"VEC3"
		},
		{
			"bufferView":5,
			"componentType":5126,
			"count":24,
			"type":"VEC3"
		},
		{
			"bufferView":6,
			"componentType":5126,
			"count":24,
			"type":"VEC2"
		},
		{
			"bufferView":7,
			"componentType":5123,
			"count":36,
			"type":"SCALAR"
		},
		{
			"bufferView":8,
			"componentType":5126,
			"count":24,
			"max":[
				0.6000000238418579,
				3.25,
				0.40000003576278687
			],
			"min":[
				-0.6000000238418579,
				-3.25,
				-0.40000003576278687
			],
			"type":"VEC3"
		},
		{
			"bufferView":9,
			"componentType":5126,
			"count":24,
			"type":"VEC3"
		},
		{
			"bufferView":10,
			"componentType":5126,
			"count":24,
			"type":"VEC2"
		},
		{
			"bufferView":11,
			"componentType":5126,
			"count":102,
			"max":[
				2,
				1.5000001192092896,
				0.40000009536743164
			],
			"min":[
				-2,
				-1.5000001192092896,
				-8.742277657347586e-08
			],
			"type":"VEC3"
		},
		{
			"bufferView":12,
			"componentType":5126,
			"count":102,
			"type":"VEC3"
		},
		{
			"bufferView":13,
			"componentType":5126,
			"count":102,
			"type":"VEC2"
		},
		{
			"bufferView":14,
			"componentType":5123,
			"count":195,
			"type":"SCALAR"
		},
		{
			"bufferView":15,
			"componentType":5126,
			"count":180,
			"max":[
				2.75,
				1.500000238418579,
				1.2020632311759982e-07
			],
			"min":[
				-2.75,
				-1.500000238418579,
				-0.40000012516975403
			],
			"type":"VEC3"
		},
		{
			"bufferView":16,
			"componentType":5126,
			"count":180,
			"type":"VEC3"
		},
		{
			"bufferView":17,
			"componentType":5126,
			"count":180,
			"type":"VEC2"
		},
		{
			"bufferView":18,
			"componentType":5123,
			"count":360,
			"type":"SCALAR"
		},
		{
			"bufferView":19,
			"componentType":5126,
			"count":24,
			"max":[
				0.6199999451637268,
				0.07500000298023224,
				2.4193551540374756
			],
			"min":[
				-0.6199999451637268,
				-0.07500000298023224,
				-2.4193551540374756
			],
			"type":"VEC3"
		},
		{
			"bufferView":20,
			"componentType":5126,
			"count":24,
			"type":"VEC3"
		},
		{
			"bufferView":21,
			"componentType":5126,
			"count":24,
			"type":"VEC2"
		},
		{
			"bufferView":22,
			"componentType":5126,
			"count":3256,
			"max":[
				9.65250015258789,
				0.29999998211860657,
				7.1775007247924805
			],
			"min":[
				-9.899999618530273,
				0.2499999850988388,
				-7.4250006675720215
			],
			"type":"VEC3"
		},
		{
			"bufferView":23,
			"componentType":5126,
			"count":3256,
			"type":"VEC3"
		},
		{
			"bufferView":24,
			"componentType":5126,
			"count":3256,
			"type":"VEC2"
		},
		{
			"bufferView":25,
			"componentType":5123,
			"count":6996,
			"type":"SCALAR"
		},
		{
			"bufferView":26,
			"componentType":5126,
			"count":56,
			"max":[
				9.800000190734863,
				0.20000000298023224,
				7.3000006675720215
			],
			"min":[
				-9.800000190734863,
				-0.10000000149011612,
				-7.3000006675720215
			],
			"type":"VEC3"
		},
		{
			"bufferView":27,
			"componentType":5126,
			"count":56,
			"type":"VEC3"
		},
		{
			"bufferView":28,
			"componentType":5126,
			"count":56,
			"type":"VEC2"
		},
		{
			"bufferView":29,
			"componentType":5123,
			"count":108,
			"type":"SCALAR"
		},
		{
			"bufferView":30,
			"componentType":5126,
			"count":48,
			"max":[
				0.3571428954601288,
				0,
				1.399999976158142
			],
			"min":[
				-0.3571428954601288,
				-0.9000000357627869,
				-1.399999976158142
			],
			"type":"VEC3"
		},
		{
			"bufferView":31,
			"componentType":5126,
			"count":48,
			"type":"VEC3"
		},
		{
			"bufferView":32,
			"componentType":5126,
			"count":48,
			"type":"VEC2"
		},
		{
			"bufferView":33,
			"componentType":5123,
			"count":84,
			"type":"SCALAR"
		},
		{
			"bufferView":34,
			"componentType":5126,
			"count":72,
			"max":[
				0.05000016465783119,
				1.125,
				3.75
			],
			"min":[
				-0.24696579575538635,
				-1.125,
				-3.75
			],
			"type":"VEC3"
		},
		{
			"bufferView":35,
			"componentType":5126,
			"count":72,
			"type":"VEC3"
		},
		{
			"bufferView":36,
			"componentType":5126,
			"count":72,
			"type":"VEC2"
		},
		{
			"bufferView":37,
			"componentType":5123,
			"count":120,
			"type":"SCALAR"
		},
		{
			"bufferView":38,
			"componentType":5126,
			"count":2624,
			"max":[
				0.7500001192092896,
				0.6389535069465637,
				2.5
			],
			"min":[
				-0.7500001192092896,
				-0.05000000074505806,
				-2.5
			],
			"type":"VEC3"
		},
		{
			"bufferView":39,
			"componentType":5126,
			"count":2624,
			"type":"VEC3"
		},
		{
			"bufferView":40,
			"componentType":5126,
			"count":2624,
			"type":"VEC2"
		},
		{
			"bufferView":41,
			"componentType":5123,
			"count":3972,
			"type":"SCALAR"
		},
		{
			"bufferView":42,
			"componentType":5126,
			"count":4896,
			"max":[
				10.5,
				0.10000000149011612,
				14.28571605682373
			],
			"min":[
				-0.7000004053115845,
				-0.6000000238418579,
				-1.4285714626312256
			],
			"type":"VEC3"
		},
		{
			"bufferView":43,
			"componentType":5126,
			"count":4896,
			"type":"VEC3"
		},
		{
			"bufferView":44,
			"componentType":5126,
			"count":4896,
			"type":"VEC2"
		},
		{
			"bufferView":45,
			"componentType":5123,
			"count":8856,
			"type":"SCALAR"
		},
		{
			"bufferView":46,
			"componentType":5126,
			"count":232,
			"max":[
				1,
				2.2822511196136475,
				0.15000008046627045
			],
			"min":[
				-1,
				-2.2177488803863525,
				-0.15000012516975403
			],
			"type":"VEC3"
		},
		{
			"bufferView":47,
			"componentType":5126,
			"count":232,
			"type":"VEC3"
		},
		{
			"bufferView":48,
			"componentType":5126,
			"count":232,
			"type":"VEC2"
		},
		{
			"bufferView":49,
			"componentType":5123,
			"count":384,
			"type":"SCALAR"
		},
		{
			"bufferView":50,
			"componentType":5126,
			"count":680,
			"max":[
				0.8299999833106995,
				2.190000057220459,
				0.14999619126319885
			],
			"min":[
				-0.8299999833106995,
				-2.190000057220459,
				-0.1500038355588913
			],
			"type":"VEC3"
		},
		{
			"bufferView":51,
			"componentType":5126,
			"count":680,
			"type":"VEC3"
		},
		{
			"bufferView":52,
			"componentType":5126,
			"count":680,
			"type":"VEC2"
		},
		{
			"bufferView":53,
			"componentType":5123,
			"count":1464,
			"type":"SCALAR"
		}
	],
	"bufferViews":[
		{
			"buffer":0,
			"byteLength":3072,
			"byteOffset":0,
			"target":34962
		},
		{
			"buffer":0,
			"byteLength":3072,
			"byteOffset":3072,
			"target":34962
		},
		{
			"buffer":0,
			"byteLength":2048,
			"byteOffset":6144,
			"target":34962
		},
		{
			"buffer":0,
			"byteLength":1224,
			"byteOffset":8192,
			"target":34963
		},
		{
			"buffer":0,
			"byteLength":288,
			"byteOffset":9416,
			"target":34962
		},
		{
			"buffer":0,
			"byteLength":288,
			"byteOffset":9704,
			"target":34962
		},
		{
			"buffer":0,
			"byteLength":192,
			"byteOffset":9992,
			"target":34962
		},
		{
			"buffer":0,
			"byteLength":72,
			"byteOffset":10184,
			"target":34963
		},
		{
			"buffer":0,
			"byteLength":288,
			"byteOffset":10256,
			"target":34962
		},
		{
			"buffer":0,
			"byteLength":288,
			"byteOffset":10544,
			"target":34962
		},
		{
			"buffer":0,
			"byteLength":192,
			"byteOffset":10832,
			"target":34962
		},
		{
			"buffer":0,
			"byteLength":1224,
			"byteOffset":11024,
			"target":34962
		},
		{
			"buffer":0,
			"byteLength":1224,
			"byteOffset":12248,
			"target":34962
		},
		{
			"buffer":0,
			"byteLength":816,
			"byteOffset":13472,
			"target":34962
		},
		{
			"buffer":0,
			"byteLength":390,
			"byteOffset":14288,
			"target":34963
		},
		{
			"buffer":0,
			"byteLength":2160,
			"byteOffset":14680,
			"target":34962
		},
		{
			"buffer":0,
			"byteLength":2160,
			"byteOffset":16840,
			"target":34962
		},
		{
			"buffer":0,
			"byteLength":1440,
			"byteOffset":19000,
			"target":34962
		},
		{
			"buffer":0,
			"byteLength":720,
			"byteOffset":20440,
			"target":34963
		},
		{
			"buffer":0,
			"byteLength":288,
			"byteOffset":21160,
			"target":34962
		},
		{
			"buffer":0,
			"byteLength":288,
			"byteOffset":21448,
			"target":34962
		},
		{
			"buffer":0,
			"byteLength":192,
			"byteOffset":21736,
			"target":34962
		},
		{
			"buffer":0,
			"byteLength":39072,
			"byteOffset":21928,
			"target":34962
		},
		{
			"buffer":0,
			"byteLength":39072,
			"byteOffset":61000,
			"target":34962
		},
		{
			"buffer":0,
			"byteLength":26048,
			"byteOffset":100072,
			"target":34962
		},
		{
			"buffer":0,
			"byteLength":13992,
			"byteOffset":126120,
			"target":34963
		},
		{
			"buffer":0,
			"byteLength":672,
			"byteOffset":140112,
			"target":34962
		},
		{
			"buffer":0,
			"byteLength":672,
			"byteOffset":140784,
			"target":34962
		},
		{
			"buffer":0,
			"byteLength":448,
			"byteOffset":141456,
			"target":34962
		},
		{
			"buffer":0,
			"byteLength":216,
			"byteOffset":141904,
			"target":34963
		},
		{
			"buffer":0,
			"byteLength":576,
			"byteOffset":142120,
			"target":34962
		},
		{
			"buffer":0,
			"byteLength":576,
			"byteOffset":142696,
			"target":34962
		},
		{
			"buffer":0,
			"byteLength":384,
			"byteOffset":143272,
			"target":34962
		},
		{
			"buffer":0,
			"byteLength":168,
			"byteOffset":143656,
			"target":34963
		},
		{
			"buffer":0,
			"byteLength":864,
			"byteOffset":143824,
			"target":34962
		},
		{
			"buffer":0,
			"byteLength":864,
			"byteOffset":144688,
			"target":34962
		},
		{
			"buffer":0,
			"byteLength":576,
			"byteOffset":145552,
			"target":34962
		},
		{
			"buffer":0,
			"byteLength":240,
			"byteOffset":146128,
			"target":34963
		},
		{
			"buffer":0,
			"byteLength":31488,
			"byteOffset":146368,
			"target":34962
		},
		{
			"buffer":0,
			"byteLength":31488,
			"byteOffset":177856,
			"target":34962
		},
		{
			"buffer":0,
			"byteLength":20992,
			"byteOffset":209344,
			"target":34962
		},
		{
			"buffer":0,
			"byteLength":7944,
			"byteOffset":230336,
			"target":34963
		},
		{
			"buffer":0,
			"byteLength":58752,
			"byteOffset":238280,
			"target":34962
		},
		{
			"buffer":0,
			"byteLength":58752,
			"byteOffset":297032,
			"target":34962
		},
		{
			"buffer":0,
			"byteLength":39168,
			"byteOffset":355784,
			"target":34962
		},
		{
			"buffer":0,
			"byteLength":17712,
			"byteOffset":394952,
			"target":34963
		},
		{
			"buffer":0,
			"byteLength":2784,
			"byteOffset":412664,
			"target":34962
		},
		{
			"buffer":0,
			"byteLength":2784,
			"byteOffset":415448,
			"target":34962
		},
		{
			"buffer":0,
			"byteLength":1856,
			"byteOffset":418232,
			"target":34962
		},
		{
			"buffer":0,
			"byteLength":768,
			"byteOffset":420088,
			"target":34963
		},
		{
			"buffer":0,
			"byteLength":8160,
			"byteOffset":420856,
			"target":34962
		},
		{
			"buffer":0,
			"byteLength":8160,
			"byteOffset":429016,
			"target":34962
		},
		{
			"buffer":0,
			"byteLength":5440,
			"byteOffset":437176,
			"target":34962
		},
		{
			"buffer":0,
			"byteLength":2928,
			"byteOffset":442616,
			"target":34963
		}
	],
	"buffers":[
		{
			"byteLength":445544,
			"uri":"classroomMiddle.bin"
		}
	]
}
