{
	"asset":{
		"generator":"Khronos glTF Blender I/O v4.5.47",
		"version":"2.0"
	},
	"extensionsUsed":[
		"KHR_lights_punctual"
	],
	"extensionsRequired":[
		"KHR_lights_punctual"
	],
	"extensions":{
		"KHR_lights_punctual":{
			"lights":[
				{
					"color":[
						1,
						1,
						1
					],
					"intensity":7609.197829223516,
					"type":"point",
					"name":"\u70b9\u5149"
				},
				{
					"color":[
						1,
						1,
						1
					],
					"intensity":7609.197829223516,
					"type":"point",
					"name":"\u70b9\u5149.001"
				},
				{
					"color":[
						1,
						1,
						1
					],
					"intensity":7609.197829223516,
					"type":"point",
					"name":"\u70b9\u5149.002"
				},
				{
					"color":[
						1,
						1,
						1
					],
					"intensity":7609.197829223516,
					"type":"point",
					"name":"\u70b9\u5149.003"
				},
				{
					"color":[
						1,
						1,
						1
					],
					"intensity":7609.197829223516,
					"type":"point",
					"name":"\u70b9\u5149.004"
				},
				{
					"color":[
						1,
						1,
						1
					],
					"intensity":7609.197829223516,
					"type":"point",
					"name":"\u70b9\u5149.005"
				},
				{
					"color":[
						1,
						1,
						1
					],
					"intensity":7609.197829223516,
					"type":"point",
					"name":"\u70b9\u5149.006"
				},
				{
					"color":[
						1,
						1,
						1
					],
					"intensity":7609.197829223516,
					"type":"point",
					"name":"\u70b9\u5149.007"
				}
			]
		}
	},
	"scene":0,
	"scenes":[
		{
			"name":"Scene",
			"nodes":[
				0,
				1,
				2,
				3,
				4,
				5,
				6,
				7,
				8,
				9,
				10,
				11,
				12,
				13,
				14,
				15,
				16,
				17,
				18,
				19,
				20,
				21,
				22
			]
		}
	],
	"nodes":[
		{
			"mesh":0,
			"name":"\u6559\u5ba4\u4e3b\u4f53",
			"rotation":[
				1,
				0,
				0,
				0
			],
			"scale":[
				-1,
				-1,
				-1
			],
			"translation":[
				-10.102205276489258,
				0,
				0
			]
		},
		{
			"mesh":1,
			"name":"\u5929\u82b1\u677f",
			"rotation":[
				1,
				0,
				0,
				0
			],
			"scale":[
				-1,
				-1,
				-1
			],
			"translation":[
				-10.102205276489258,
				0,
				0
			]
		},
		{
			"mesh":2,
			"name":"\u9636\u68af",
			"rotation":[
				1,
				0,
				0,
				0
			],
			"scale":[
				-1,
				-1,
				-1
			],
			"translation":[
				-10.102205276489258,
				0.009999990463256836,
				0
			]
		},
		{
			"mesh":3,
			"name":"\u524d\u53f0\u5730\u677f",
			"rotation":[
				1,
				0,
				0,
				0
			],
			"scale":[
				-1,
				-1,
				-1
			],
			"translation":[
				-10.102205276489258,
				0.029999971389770508,
				0
			]
		},
		{
			"mesh":4,
			"name":"\u8bb2\u53f0\u5730\u677f",
			"rotation":[
				1,
				0,
				0,
				0
			],
			"scale":[
				-1,
				-1,
				-1
			],
			"translation":[
				-10.102205276489258,
				0.029999971389770508,
				0
			]
		},
		{
			"mesh":5,
			"name":"\u9ed1\u677f",
			"rotation":[
				1,
				0,
				0,
				0
			],
			"scale":[
				-1,
				-1,
				-1
			],
			"translation":[
				-9.902206420898438,
				2.095238208770752,
				0
			]
		},
		{
			"mesh":6,
			"name":"\u9ed1\u677f.001",
			"rotation":[
				1,
				0,
				0,
				0
			],
			"scale":[
				-1,
				-1,
				-1
			],
			"translation":[
				-10.042206764221191,
				4.595238208770752,
				-4.899999618530273
			]
		},
		{
			"mesh":7,
			"name":"\u9ed1\u677f.002",
			"rotation":[
				1,
				0,
				0,
				0
			],
			"scale":[
				-1,
				-1,
				-1
			],
			"translation":[
				-10.062206268310547,
				2.095238208770752,
				4.90000057220459
			]
		},
		{
			"mesh":8,
			"name":"\u9ed1\u677f.003",
			"rotation":[
				1,
				0,
				0,
				0
			],
			"scale":[
				-1,
				-1,
				-1
			],
			"translation":[
				-10.042206764221191,
				4.795238494873047,
				0
			]
		},
		{
			"mesh":9,
			"name":"\u9ed1\u677f.004",
			"rotation":[
				1,
				0,
				0,
				0
			],
			"scale":[
				-1,
				-1,
				-1
			],
			"translation":[
				-9.91220474243164,
				3.895238161087036,
				4.90000057220459
			]
		},
		{
			"mesh":10,
			"name":"\u9ed1\u677f.005",
			"rotation":[
				1,
				0,
				0,
				0
			],
			"scale":[
				-1,
				-1,
				-1
			],
			"translation":[
				-9.902206420898438,
				3.1852383613586426,
				-4.899999618530273
			]
		},
		{
			"mesh":11,
			"name":"\u9ed1\u677f\u6846",
			"rotation":[
				1,
				0,
				0,
				0
			],
			"scale":[
				-1,
				-0.9523810148239136,
				-1
			],
			"translation":[
				-7.902205467224121,
				0.5,
				0
			]
		},
		{
			"mesh":12,
			"name":"\u95e8",
			"rotation":[
				1,
				0,
				0,
				0
			],
			"scale":[
				-1,
				-1,
				-1
			],
			"translation":[
				-11.9522066116333,
				2.095238208770752,
				0
			]
		},
		{
			"mesh":13,
			"name":"\u58c1\u706f",
			"rotation":[
				0.5735765099525452,
				0,
				-0.8191519975662231,
				0
			],
			"scale":[
				-1,
				-1,
				-1
			],
			"translation":[
				-11.952207565307617,
				2.095237970352173,
				0
			]
		},
		{
			"extensions":{
				"KHR_lights_punctual":{
					"light":0
				}
			},
			"name":"\u70b9\u5149",
			"rotation":[
				0.7071068286895752,
				0,
				0,
				0.7071068286895752
			],
			"scale":[
				-1,
				-0.9999999403953552,
				-0.9999999403953552
			],
			"translation":[
				-8.502204895019531,
				6.599998950958252,
				2.7400002479553223
			]
		},
		{
			"extensions":{
				"KHR_lights_punctual":{
					"light":1
				}
			},
			"name":"\u70b9\u5149.001",
			"rotation":[
				0.7071068286895752,
				0,
				0,
				0.7071068286895752
			],
			"scale":[
				-1,
				-0.9999999403953552,
				-0.9999999403953552
			],
			"translation":[
				-8.502204895019531,
				6.599998950958252,
				-2.739999771118164
			]
		},
		{
			"extensions":{
				"KHR_lights_punctual":{
					"light":2
				}
			},
			"name":"\u70b9\u5149.002",
			"rotation":[
				0.7071068286895752,
				0,
				0,
				0.7071068286895752
			],
			"scale":[
				-1,
				-0.9999999403953552,
				-0.9999999403953552
			],
			"translation":[
				-3.532205581665039,
				6.600002288818359,
				0
			]
		},
		{
			"extensions":{
				"KHR_lights_punctual":{
					"light":3
				}
			},
			"name":"\u70b9\u5149.003",
			"rotation":[
				0.7071068286895752,
				0,
				0,
				0.7071068286895752
			],
			"scale":[
				-1,
				-0.9999999403953552,
				-0.9999999403953552
			],
			"translation":[
				7.767610549926758,
				7.960002899169922,
				0
			]
		},
		{
			"extensions":{
				"KHR_lights_punctual":{
					"light":4
				}
			},
			"name":"\u70b9\u5149.004",
			"rotation":[
				0.7071068286895752,
				0,
				0,
				0.7071068286895752
			],
			"scale":[
				-1,
				-0.9999999403953552,
				-0.9999999403953552
			],
			"translation":[
				7.767610549926758,
				7.960002899169922,
				9
			]
		},
		{
			"extensions":{
				"KHR_lights_punctual":{
					"light":5
				}
			},
			"name":"\u70b9\u5149.005",
			"rotation":[
				0.7071068286895752,
				0,
				0,
				0.7071068286895752
			],
			"scale":[
				-1,
				-0.9999999403953552,
				-0.9999999403953552
			],
			"translation":[
				7.767610549926758,
				7.960002899169922,
				-9
			]
		},
		{
			"extensions":{
				"KHR_lights_punctual":{
					"light":6
				}
			},
			"name":"\u70b9\u5149.006",
			"rotation":[
				0.7071068286895752,
				0,
				0,
				0.7071068286895752
			],
			"scale":[
				-1,
				-0.9999999403953552,
				-0.9999999403953552
			],
			"translation":[
				7.767610549926758,
				9,
				18
			]
		},
		{
			"extensions":{
				"KHR_lights_punctual":{
					"light":7
				}
			},
			"name":"\u70b9\u5149.007",
			"rotation":[
				0.7071068286895752,
				0,
				0,
				0.7071068286895752
			],
			"scale":[
				-1,
				-0.9999999403953552,
				-0.9999999403953552
			],
			"translation":[
				7.767610549926758,
				9,
				-18
			]
		},
		{
			"mesh":14,
			"name":"\u684c\u6905",
			"rotation":[
				1,
				0,
				0,
				0
			],
			"scale":[
				-1,
				-1,
				-1
			],
			"translation":[
				-10.102205276489258,
				0,
				0
			]
		}
	],
	"materials":[
		{
			"alphaMode":"BLEND",
			"doubleSided":true,
			"emissiveFactor":[
				0.7999999523162842,
				0.7774910463398044,
				0.6378538705197627
			],
			"name":"\u81ea\u53d1\u5149",
			"pbrMetallicRoughness":{
				"baseColorFactor":[
					0.7862260341644287,
					0.7725152373313904,
					0.8000785112380981,
					0.5
				],
				"metallicFactor":0,
				"roughnessFactor":0.5
			}
		}
	],
	"meshes":[
		{
			"name":"Cube",
			"primitives":[
				{
					"attributes":{
						"POSITION":0,
						"NORMAL":1,
						"TEXCOORD_0":2
					},
					"indices":3
				}
			]
		},
		{
			"name":"Cube.001",
			"primitives":[
				{
					"attributes":{
						"POSITION":4,
						"NORMAL":5
					},
					"indices":6,
					"material":0
				}
			]
		},
		{
			"name":"Cube.002",
			"primitives":[
				{
					"attributes":{
						"POSITION":7,
						"NORMAL":8,
						"TEXCOORD_0":9
					},
					"indices":10
				}
			]
		},
		{
			"name":"Cube.009",
			"primitives":[
				{
					"attributes":{
						"POSITION":11,
						"NORMAL":12,
						"TEXCOORD_0":13
					},
					"indices":14
				}
			]
		},
		{
			"name":"Cube.010",
			"primitives":[
				{
					"attributes":{
						"POSITION":15,
						"NORMAL":16,
						"TEXCOORD_0":17
					},
					"indices":18
				}
			]
		},
		{
			"name":"\u5e73\u9762",
			"primitives":[
				{
					"attributes":{
						"POSITION":19,
						"NORMAL":20,
						"TEXCOORD_0":21
					},
					"indices":22
				}
			]
		},
		{
			"name":"\u5e73\u9762.003",
			"primitives":[
				{
					"attributes":{
						"POSITION":23,
						"NORMAL":24,
						"TEXCOORD_0":25
					},
					"indices":22
				}
			]
		},
		{
			"name":"\u5e73\u9762.004",
			"primitives":[
				{
					"attributes":{
						"POSITION":26,
						"NORMAL":27,
						"TEXCOORD_0":28
					},
					"indices":22
				}
			]
		},
		{
			"name":"\u5e73\u9762.005",
			"primitives":[
				{
					"attributes":{
						"POSITION":29,
						"NORMAL":30,
						"TEXCOORD_0":31
					},
					"indices":22
				}
			]
		},
		{
			"name":"\u5e73\u9762.006",
			"primitives":[
				{
					"attributes":{
						"POSITION":32,
						"NORMAL":33,
						"TEXCOORD_0":34
					},
					"indices":22
				}
			]
		},
		{
			"name":"\u5e73\u9762.007",
			"primitives":[
				{
					"attributes":{
						"POSITION":35,
						"NORMAL":36,
						"TEXCOORD_0":37
					},
					"indices":22
				}
			]
		},
		{
			"name":"Cube.004",
			"primitives":[
				{
					"attributes":{
						"POSITION":38,
						"NORMAL":39,
						"TEXCOORD_0":40
					},
					"indices":41
				}
			]
		},
		{
			"name":"Cube.008",
			"primitives":[
				{
					"attributes":{
						"POSITION":42,
						"NORMAL":43,
						"TEXCOORD_0":44
					},
					"indices":45
				}
			]
		},
		{
			"name":"\u7acb\u65b9\u4f53",
			"primitives":[
				{
					"attributes":{
						"POSITION":46,
						"NORMAL":47,
						"TEXCOORD_0":48
					},
					"indices":49
				}
			]
		},
		{
			"name":"\u8d1d\u585e\u5c14\u66f2\u7ebf",
			"primitives":[
				{
					"attributes":{
						"POSITION":50,
						"NORMAL":51,
						"TEXCOORD_0":52
					},
					"indices":53
				}
			]
		}
	],
	"accessors":[
		{
			"bufferView":0,
			"componentType":5126,
			"count":444,
			"max":[
				0.21999993920326233,
				10,
				28.190780639648438
			],
			"min":[
				-29.90054702758789,
				0,
				-28.190778732299805
			],
			"type":"VEC3"
		},
		{
			"bufferView":1,
			"componentType":5126,
			"count":444,
			"type":"VEC3"
		},
		{
			"bufferView":2,
			"componentType":5126,
			"count":444,
			"type":"VEC2"
		},
		{
			"bufferView":3,
			"componentType":5123,
			"count":978,
			"type":"SCALAR"
		},
		{
			"bufferView":4,
			"componentType":5126,
			"count":3248,
			"max":[
				-0.20000004768371582,
				10,
				27.918472290039062
			],
			"min":[
				-29.700546264648438,
				6.700000286102295,
				-27.91847038269043
			],
			"type":"VEC3"
		},
		{
			"bufferView":5,
			"componentType":5126,
			"count":3248,
			"type":"VEC3"
		},
		{
			"bufferView":6,
			"componentType":5123,
			"count":5184,
			"type":"SCALAR"
		},
		{
			"bufferView":7,
			"componentType":5126,
			"count":2768,
			"max":[
				-3.6202006340026855,
				5.300368785858154,
				27.918472290039062
			],
			"min":[
				-29.700546264648438,
				-0.009999999776482582,
				-27.91847038269043
			],
			"type":"VEC3"
		},
		{
			"bufferView":8,
			"componentType":5126,
			"count":2768,
			"type":"VEC3"
		},
		{
			"bufferView":9,
			"componentType":5126,
			"count":2768,
			"type":"VEC2"
		},
		{
			"bufferView":10,
			"componentType":5123,
			"count":4500,
			"type":"SCALAR"
		},
		{
			"bufferView":11,
			"componentType":5126,
			"count":16,
			"max":[
				-3.6202006340026855,
				0,
				9.361661911010742
			],
			"min":[
				-9.965845108032227,
				-0.009999999776482582,
				-9.361661911010742
			],
			"type":"VEC3"
		},
		{
			"bufferView":12,
			"componentType":5126,
			"count":16,
			"type":"VEC3"
		},
		{
			"bufferView":13,
			"componentType":5126,
			"count":16,
			"type":"VEC2"
		},
		{
			"bufferView":14,
			"componentType":5123,
			"count":42,
			"type":"SCALAR"
		},
		{
			"bufferView":15,
			"componentType":5126,
			"count":4,
			"max":[
				-0.40000009536743164,
				0,
				9.199886322021484
			],
			"min":[
				-3.620698928833008,
				0,
				-9.199886322021484
			],
			"type":"VEC3"
		},
		{
			"bufferView":16,
			"componentType":5126,
			"count":4,
			"type":"VEC3"
		},
		{
			"bufferView":17,
			"componentType":5126,
			"count":4,
			"type":"VEC2"
		},
		{
			"bufferView":18,
			"componentType":5123,
			"count":6,
			"type":"SCALAR"
		},
		{
			"bufferView":19,
			"componentType":5126,
			"count":272,
			"max":[
				4.3128572713158064e-08,
				1.5,
				2.3499999046325684
			],
			"min":[
				-0.14000004529953003,
				-1.5,
				-2.3499999046325684
			],
			"type":"VEC3"
		},
		{
			"bufferView":20,
			"componentType":5126,
			"count":272,
			"type":"VEC3"
		},
		{
			"bufferView":21,
			"componentType":5126,
			"count":272,
			"type":"VEC2"
		},
		{
			"bufferView":22,
			"componentType":5123,
			"count":468,
			"type":"SCALAR"
		},
		{
			"bufferView":23,
			"componentType":5126,
			"count":272,
			"max":[
				4.3128572713158064e-08,
				1.5,
				2.3499999046325684
			],
			"min":[
				-0.14000004529953003,
				-1.5,
				-2.3499999046325684
			],
			"type":"VEC3"
		},
		{
			"bufferView":24,
			"componentType":5126,
			"count":272,
			"type":"VEC3"
		},
		{
			"bufferView":25,
			"componentType":5126,
			"count":272,
			"type":"VEC2"
		},
		{
			"bufferView":26,
			"componentType":5126,
			"count":272,
			"max":[
				4.3128572713158064e-08,
				1.5,
				2.3499999046325684
			],
			"min":[
				-0.14000004529953003,
				-1.5,
				-2.3499999046325684
			],
			"type":"VEC3"
		},
		{
			"bufferView":27,
			"componentType":5126,
			"count":272,
			"type":"VEC3"
		},
		{
			"bufferView":28,
			"componentType":5126,
			"count":272,
			"type":"VEC2"
		},
		{
			"bufferView":29,
			"componentType":5126,
			"count":272,
			"max":[
				4.3128572713158064e-08,
				1.5,
				2.3499999046325684
			],
			"min":[
				-0.14000004529953003,
				-1.5,
				-2.3499999046325684
			],
			"type":"VEC3"
		},
		{
			"bufferView":30,
			"componentType":5126,
			"count":272,
			"type":"VEC3"
		},
		{
			"bufferView":31,
			"componentType":5126,
			"count":272,
			"type":"VEC2"
		},
		{
			"bufferView":32,
			"componentType":5126,
			"count":272,
			"max":[
				4.3128572713158064e-08,
				1.5,
				2.3499999046325684
			],
			"min":[
				-0.14000004529953003,
				-1.5,
				-2.3499999046325684
			],
			"type":"VEC3"
		},
		{
			"bufferView":33,
			"componentType":5126,
			"count":272,
			"type":"VEC3"
		},
		{
			"bufferView":34,
			"componentType":5126,
			"count":272,
			"type":"VEC2"
		},
		{
			"bufferView":35,
			"componentType":5126,
			"count":272,
			"max":[
				4.3128572713158064e-08,
				1.5,
				2.3499999046325684
			],
			"min":[
				-0.14000004529953003,
				-1.5,
				-2.3499999046325684
			],
			"type":"VEC3"
		},
		{
			"bufferView":36,
			"componentType":5126,
			"count":272,
			"type":"VEC3"
		},
		{
			"bufferView":37,
			"componentType":5126,
			"count":272,
			"type":"VEC2"
		},
		{
			"bufferView":38,
			"componentType":5126,
			"count":1012,
			"max":[
				2.200000047683716,
				6.299999713897705,
				7.3599090576171875
			],
			"min":[
				1.7999999523162842,
				0,
				-7.3599090576171875
			],
			"type":"VEC3"
		},
		{
			"bufferView":39,
			"componentType":5126,
			"count":1012,
			"type":"VEC3"
		},
		{
			"bufferView":40,
			"componentType":5126,
			"count":1012,
			"type":"VEC2"
		},
		{
			"bufferView":41,
			"componentType":5123,
			"count":1812,
			"type":"SCALAR"
		},
		{
			"bufferView":42,
			"componentType":5126,
			"count":1544,
			"max":[
				-2.8000094890594482,
				0.8047618865966797,
				9.479275703430176
			],
			"min":[
				-4.790085792541504,
				-2.085238218307495,
				-9.479275703430176
			],
			"type":"VEC3"
		},
		{
			"bufferView":43,
			"componentType":5126,
			"count":1544,
			"type":"VEC3"
		},
		{
			"bufferView":44,
			"componentType":5126,
			"count":1544,
			"type":"VEC2"
		},
		{
			"bufferView":45,
			"componentType":5123,
			"count":2496,
			"type":"SCALAR"
		},
		{
			"bufferView":46,
			"componentType":5126,
			"count":384,
			"max":[
				26.748390197753906,
				4.2799973487854,
				19.29583168029785
			],
			"min":[
				-19.240646362304688,
				1.760000228881836,
				1.944359540939331
			],
			"type":"VEC3"
		},
		{
			"bufferView":47,
			"componentType":5126,
			"count":384,
			"type":"VEC3"
		},
		{
			"bufferView":48,
			"componentType":5126,
			"count":384,
			"type":"VEC2"
		},
		{
			"bufferView":49,
			"componentType":5123,
			"count":672,
			"type":"SCALAR"
		},
		{
			"bufferView":50,
			"componentType":5126,
			"count":5332,
			"max":[
				-4.756052494049072,
				6.309865474700928,
				25.251285552978516
			],
			"min":[
				-28.835357666015625,
				0.32668396830558777,
				-25.251285552978516
			],
			"type":"VEC3"
		},
		{
			"bufferView":51,
			"componentType":5126,
			"count":5332,
			"type":"VEC3"
		},
		{
			"bufferView":52,
			"componentType":5126,
			"count":5332,
			"type":"VEC2"
		},
		{
			"bufferView":53,
			"componentType":5123,
			"count":9360,
			"type":"SCALAR"
		}
	],
	"bufferViews":[
		{
			"buffer":0,
			"byteLength":5328,
			"byteOffset":0,
			"target":34962
		},
		{
			"buffer":0,
			"byteLength":5328,
			"byteOffset":5328,
			"target":34962
		},
		{
			"buffer":0,
			"byteLength":3552,
			"byteOffset":10656,
			"target":34962
		},
		{
			"buffer":0,
			"byteLength":1956,
			"byteOffset":14208,
			"target":34963
		},
		{
			"buffer":0,
			"byteLength":38976,
			"byteOffset":16164,
			"target":34962
		},
		{
			"buffer":0,
			"byteLength":38976,
			"byteOffset":55140,
			"target":34962
		},
		{
			"buffer":0,
			"byteLength":10368,
			"byteOffset":94116,
			"target":34963
		},
		{
			"buffer":0,
			"byteLength":33216,
			"byteOffset":104484,
			"target":34962
		},
		{
			"buffer":0,
			"byteLength":33216,
			"byteOffset":137700,
			"target":34962
		},
		{
			"buffer":0,
			"byteLength":22144,
			"byteOffset":170916,
			"target":34962
		},
		{
			"buffer":0,
			"byteLength":9000,
			"byteOffset":193060,
			"target":34963
		},
		{
			"buffer":0,
			"byteLength":192,
			"byteOffset":202060,
			"target":34962
		},
		{
			"buffer":0,
			"byteLength":192,
			"byteOffset":202252,
			"target":34962
		},
		{
			"buffer":0,
			"byteLength":128,
			"byteOffset":202444,
			"target":34962
		},
		{
			"buffer":0,
			"byteLength":84,
			"byteOffset":202572,
			"target":34963
		},
		{
			"buffer":0,
			"byteLength":48,
			"byteOffset":202656,
			"target":34962
		},
		{
			"buffer":0,
			"byteLength":48,
			"byteOffset":202704,
			"target":34962
		},
		{
			"buffer":0,
			"byteLength":32,
			"byteOffset":202752,
			"target":34962
		},
		{
			"buffer":0,
			"byteLength":12,
			"byteOffset":202784,
			"target":34963
		},
		{
			"buffer":0,
			"byteLength":3264,
			"byteOffset":202796,
			"target":34962
		},
		{
			"buffer":0,
			"byteLength":3264,
			"byteOffset":206060,
			"target":34962
		},
		{
			"buffer":0,
			"byteLength":2176,
			"byteOffset":209324,
			"target":34962
		},
		{
			"buffer":0,
			"byteLength":936,
			"byteOffset":211500,
			"target":34963
		},
		{
			"buffer":0,
			"byteLength":3264,
			"byteOffset":212436,
			"target":34962
		},
		{
			"buffer":0,
			"byteLength":3264,
			"byteOffset":215700,
			"target":34962
		},
		{
			"buffer":0,
			"byteLength":2176,
			"byteOffset":218964,
			"target":34962
		},
		{
			"buffer":0,
			"byteLength":3264,
			"byteOffset":221140,
			"target":34962
		},
		{
			"buffer":0,
			"byteLength":3264,
			"byteOffset":224404,
			"target":34962
		},
		{
			"buffer":0,
			"byteLength":2176,
			"byteOffset":227668,
			"target":34962
		},
		{
			"buffer":0,
			"byteLength":3264,
			"byteOffset":229844,
			"target":34962
		},
		{
			"buffer":0,
			"byteLength":3264,
			"byteOffset":233108,
			"target":34962
		},
		{
			"buffer":0,
			"byteLength":2176,
			"byteOffset":236372,
			"target":34962
		},
		{
			"buffer":0,
			"byteLength":3264,
			"byteOffset":238548,
			"target":34962
		},
		{
			"buffer":0,
			"byteLength":3264,
			"byteOffset":241812,
			"target":34962
		},
		{
			"buffer":0,
			"byteLength":2176,
			"byteOffset":245076,
			"target":34962
		},
		{
			"buffer":0,
			"byteLength":3264,
			"byteOffset":247252,
			"target":34962
		},
		{
			"buffer":0,
			"byteLength":3264,
			"byteOffset":250516,
			"target":34962
		},
		{
			"buffer":0,
			"byteLength":2176,
			"byteOffset":253780,
			"target":34962
		},
		{
			"buffer":0,
			"byteLength":12144,
			"byteOffset":255956,
			"target":34962
		},
		{
			"buffer":0,
			"byteLength":12144,
			"byteOffset":268100,
			"target":34962
		},
		{
			"buffer":0,
			"byteLength":8096,
			"byteOffset":280244,
			"target":34962
		},
		{
			"buffer":0,
			"byteLength":3624,
			"byteOffset":288340,
			"target":34963
		},
		{
			"buffer":0,
			"byteLength":18528,
			"byteOffset":291964,
			"target":34962
		},
		{
			"buffer":0,
			"byteLength":18528,
			"byteOffset":310492,
			"target":34962
		},
		{
			"buffer":0,
			"byteLength":12352,
			"byteOffset":329020,
			"target":34962
		},
		{
			"buffer":0,
			"byteLength":4992,
			"byteOffset":341372,
			"target":34963
		},
		{
			"buffer":0,
			"byteLength":4608,
			"byteOffset":346364,
			"target":34962
		},
		{
			"buffer":0,
			"byteLength":4608,
			"byteOffset":350972,
			"target":34962
		},
		{
			"buffer":0,
			"byteLength":3072,
			"byteOffset":355580,
			"target":34962
		},
		{
			"buffer":0,
			"byteLength":1344,
			"byteOffset":358652,
			"target":34963
		},
		{
			"buffer":0,
			"byteLength":63984,
			"byteOffset":359996,
			"target":34962
		},
		{
			"buffer":0,
			"byteLength":63984,
			"byteOffset":423980,
			"target":34962
		},
		{
			"buffer":0,
			"byteLength":42656,
			"byteOffset":487964,
			"target":34962
		},
		{
			"buffer":0,
			"byteLength":18720,
			"byteOffset":530620,
			"target":34963
		}
	],
	"buffers":[
		{
			"byteLength":549340,
			"uri":"classroomUltra.bin"
		}
	]
}
