{
	"asset":{
		"generator":"Khronos glTF Blender I/O v4.5.47",
		"version":"2.0"
	},
	"extensionsUsed":[
		"KHR_materials_transmission",
		"KHR_materials_emissive_strength"
	],
	"scene":0,
	"scenes":[
		{
			"name":"Scene",
			"nodes":[
				0,
				1,
				2
			]
		}
	],
	"nodes":[
		{
			"mesh":0,
			"name":"\u68f1\u89d2\u7403"
		},
		{
			"mesh":1,
			"name":"\u68f1\u89d2\u7403.001"
		},
		{
			"mesh":2,
			"name":"\u68f1\u89d2\u7403.002"
		}
	],
	"materials":[
		{
			"doubleSided":true,
			"emissiveFactor":[
				0.2504677474498749,
				0.8051174283027649,
				1
			],
			"extensions":{
				"KHR_materials_emissive_strength":{
					"emissiveStrength":10.799999237060547
				}
			},
			"name":"\u6750\u8d28.003",
			"pbrMetallicRoughness":{
				"baseColorFactor":[
					0.7415391206741333,
					0.8005914688110352,
					0.8005914688110352,
					1
				],
				"metallicFactor":0,
				"roughnessFactor":0.5
			}
		},
		{
			"doubleSided":true,
			"name":"\u6750\u8d28",
			"pbrMetallicRoughness":{
				"baseColorFactor":[
					0.26587948203086853,
					0.274644672870636,
					0.27670687437057495,
					1
				]
			}
		},
		{
			"doubleSided":true,
			"extensions":{
				"KHR_materials_transmission":{
					"transmissionFactor":1
				}
			},
			"name":"\u6750\u8d28.001",
			"pbrMetallicRoughness":{
				"baseColorFactor":[
					1,
					0.90778648853302,
					0.9637670516967773,
					1
				],
				"baseColorTexture":{
					"index":0
				},
				"metallicFactor":0
			}
		}
	],
	"images":[
		{
			"uri":"棱角球.002_Bake1_CyclesBake_COMBINED.png"
		}
	],
	"textures":[
		{
			"source":0
		}
	],
	"meshes":[
		{
			"name":"\u68f1\u89d2\u7403",
			"primitives":[
				{
					"attributes":{
						"POSITION":0,
						"NORMAL":1,
						"TEXCOORD_0":2
					},
					"indices":3,
					"material":0
				}
			]
		},
		{
			"name":"\u68f1\u89d2\u7403.001",
			"primitives":[
				{
					"attributes":{
						"POSITION":4,
						"NORMAL":5,
						"TEXCOORD_0":6
					},
					"indices":7,
					"material":1
				}
			]
		},
		{
			"name":"\u68f1\u89d2\u7403.002",
			"primitives":[
				{
					"attributes":{
						"POSITION":8,
						"NORMAL":9,
						"TEXCOORD_0":10
					},
					"indices":3,
					"material":2
				}
			]
		}
	],
	"accessors":[
		{
			"bufferView":0,
			"componentType":5126,
			"count":60,
			"max":[
				0.14602991938591003,
				0.16326682269573212,
				0.13888129591941833
			],
			"min":[
				-0.14602991938591003,
				-0.16326682269573212,
				-0.13888129591941833
			],
			"type":"VEC3"
		},
		{
			"bufferView":1,
			"componentType":5126,
			"count":60,
			"type":"VEC3"
		},
		{
			"bufferView":2,
			"componentType":5126,
			"count":60,
			"type":"VEC2"
		},
		{
			"bufferView":3,
			"componentType":5123,
			"count":60,
			"type":"SCALAR"
		},
		{
			"bufferView":4,
			"componentType":5126,
			"count":53782,
			"max":[
				0.913989245891571,
				0.9963033199310303,
				0.8751664757728577
			],
			"min":[
				-0.913989245891571,
				-0.9963033199310303,
				-0.8751664757728577
			],
			"type":"VEC3"
		},
		{
			"bufferView":5,
			"componentType":5126,
			"count":53782,
			"type":"VEC3"
		},
		{
			"bufferView":6,
			"componentType":5126,
			"count":53782,
			"type":"VEC2"
		},
		{
			"bufferView":7,
			"componentType":5123,
			"count":92160,
			"type":"SCALAR"
		},
		{
			"bufferView":8,
			"componentType":5126,
			"count":60,
			"max":[
				0.844688892364502,
				0.9443932175636292,
				0.8033386468887329
			],
			"min":[
				-0.844688892364502,
				-0.9443932175636292,
				-0.8033386468887329
			],
			"type":"VEC3"
		},
		{
			"bufferView":9,
			"componentType":5126,
			"count":60,
			"type":"VEC3"
		},
		{
			"bufferView":10,
			"componentType":5126,
			"count":60,
			"type":"VEC2"
		}
	],
	"bufferViews":[
		{
			"buffer":0,
			"byteLength":720,
			"byteOffset":0,
			"target":34962
		},
		{
			"buffer":0,
			"byteLength":720,
			"byteOffset":720,
			"target":34962
		},
		{
			"buffer":0,
			"byteLength":480,
			"byteOffset":1440,
			"target":34962
		},
		{
			"buffer":0,
			"byteLength":120,
			"byteOffset":1920,
			"target":34963
		},
		{
			"buffer":0,
			"byteLength":645384,
			"byteOffset":2040,
			"target":34962
		},
		{
			"buffer":0,
			"byteLength":645384,
			"byteOffset":647424,
			"target":34962
		},
		{
			"buffer":0,
			"byteLength":430256,
			"byteOffset":1292808,
			"target":34962
		},
		{
			"buffer":0,
			"byteLength":184320,
			"byteOffset":1723064,
			"target":34963
		},
		{
			"buffer":0,
			"byteLength":720,
			"byteOffset":1907384,
			"target":34962
		},
		{
			"buffer":0,
			"byteLength":720,
			"byteOffset":1908104,
			"target":34962
		},
		{
			"buffer":0,
			"byteLength":480,
			"byteOffset":1908824,
			"target":34962
		}
	],
	"buffers":[
		{
			"byteLength":1909304,
			"uri":"celestail_hub.bin"
		}
	]
}
